<svg width="24" height="24" viewBox="0 0 24 24" fill="none" xmlns="http://www.w3.org/2000/svg">
<path d="M12.43 4.09979C12.2676 4.02953 12.0895 4.00362 11.9138 4.0247C11.7381 4.04578 11.5712 4.1131 11.43 4.21979L6.65 7.99979H3C2.73478 7.99979 2.48043 8.10514 2.29289 8.29268C2.10536 8.48022 2 8.73457 2 8.99979V14.9998C2 15.265 2.10536 15.5194 2.29289 15.7069C2.48043 15.8944 2.73478 15.9998 3 15.9998H6.65L11.38 19.7798C11.5559 19.9209 11.7744 19.9985 12 19.9998C12.1494 20.0023 12.297 19.9679 12.43 19.8998C12.6002 19.8187 12.744 19.6912 12.8448 19.532C12.9457 19.3728 12.9995 19.1883 13 18.9998V4.99979C12.9995 4.8113 12.9457 4.6268 12.8448 4.46757C12.744 4.30833 12.6002 4.18084 12.43 4.09979ZM11 16.9198L7.62 14.2198C7.44406 14.0786 7.22556 14.0011 7 13.9998H4V9.99979H7C7.22556 9.99848 7.44406 9.92095 7.62 9.77979L11 7.07979V16.9198ZM19.66 6.33979C19.4717 6.15148 19.2163 6.0457 18.95 6.0457C18.6837 6.0457 18.4283 6.15148 18.24 6.33979C18.0517 6.52809 17.9459 6.78349 17.9459 7.04979C17.9459 7.31609 18.0517 7.57148 18.24 7.75979C18.8289 8.34773 19.289 9.05172 19.5911 9.82704C19.8933 10.6024 20.0309 11.4321 19.9951 12.2634C19.9594 13.0948 19.7511 13.9096 19.3835 14.6561C19.016 15.4026 18.4971 16.0646 17.86 16.5998C17.7053 16.7321 17.5946 16.9085 17.5428 17.1054C17.491 17.3022 17.5005 17.5103 17.5701 17.7016C17.6396 17.8929 17.766 18.0584 17.9321 18.1761C18.0983 18.2937 18.2964 18.3578 18.5 18.3598C18.7337 18.3602 18.9601 18.2789 19.14 18.1298C19.9909 17.4171 20.6843 16.5351 21.1759 15.5399C21.6675 14.5447 21.9466 13.4582 21.9955 12.3493C22.0444 11.2404 21.862 10.1334 21.4599 9.09883C21.0579 8.06424 20.4449 7.12464 19.66 6.33979ZM16.83 9.16979C16.7368 9.07655 16.6261 9.00259 16.5042 8.95213C16.3824 8.90167 16.2519 8.8757 16.12 8.8757C15.9881 8.8757 15.8576 8.90167 15.7358 8.95213C15.6139 9.00259 15.5032 9.07655 15.41 9.16979C15.3168 9.26303 15.2428 9.37372 15.1923 9.49554C15.1419 9.61736 15.1159 9.74793 15.1159 9.87979C15.1159 10.0116 15.1419 10.1422 15.1923 10.264C15.2428 10.3859 15.3168 10.4965 15.41 10.5898C15.7856 10.9631 15.9978 11.4702 16 11.9998C16.0002 12.2911 15.9368 12.579 15.8142 12.8433C15.6915 13.1076 15.5126 13.3419 15.29 13.5298C15.1887 13.6137 15.105 13.7168 15.0437 13.8332C14.9823 13.9495 14.9445 14.0768 14.9325 14.2078C14.9204 14.3388 14.9343 14.4709 14.9733 14.5965C15.0124 14.7221 15.0758 14.8387 15.16 14.9398C15.2447 15.0403 15.3483 15.1232 15.465 15.1836C15.5817 15.2441 15.7092 15.2809 15.8401 15.2921C15.9711 15.3032 16.1029 15.2884 16.2282 15.2486C16.3534 15.2087 16.4696 15.1446 16.57 15.0598C17.0171 14.6849 17.3768 14.2167 17.6238 13.6881C17.8709 13.1595 17.9992 12.5833 18 11.9998C17.9944 10.9399 17.5744 9.92424 16.83 9.16979Z" fill="black"/>
</svg>
